<svg xmlns="http://www.w3.org/2000/svg" width="57" height="53" fill="none" viewBox="0 0 57 53"><path fill="#000" d="M44.1092 16.4683L41.2401 4.97208C40.9137 3.67087 40.1619 2.51601 39.1041 1.69088C38.0464 0.865751 36.7433 0.417648 35.4017 0.417725H21.5982C20.2567 0.417648 18.9536 0.865751 17.8958 1.69088C16.838 2.51601 16.0862 3.67087 15.7598 4.97208L12.8908 16.4683H0.732422L8.61728 48.0278C8.94372 49.329 9.69551 50.4839 10.7533 51.309C11.811 52.1342 13.1142 52.5823 14.4557 52.5822H42.5442C43.8858 52.5823 45.1889 52.1342 46.2466 51.309C47.3044 50.4839 48.0562 49.329 48.3826 48.0278L56.2675 16.4683H44.1092ZM26.4936 36.5316V48.5695H22.1399L19.8728 36.5316H26.4936ZM19.1304 32.5189L16.8633 20.481H26.4936V32.5189H19.1304ZM30.5063 36.5316H37.1272L34.86 48.5695H30.5063V36.5316ZM30.5063 32.5189V20.481H40.1366L37.8695 32.5189H30.5063ZM44.2095 20.481H51.1313L48.1218 32.5189H41.9423L44.2095 20.481ZM19.6521 5.95518C19.7619 5.51003 20.0209 5.11592 20.386 4.83849C20.751 4.56105 21.2001 4.41702 21.6584 4.43037H35.4619C35.9202 4.41702 36.3693 4.56105 36.7343 4.83849C37.0994 5.11592 37.3584 5.51003 37.4682 5.95518L39.9761 16.4683H17.0238L19.6521 5.95518ZM12.7904 20.481L15.0576 32.5189H8.8781L5.86861 20.481H12.7904ZM12.4494 47.0447L9.88126 36.5316H15.9002L18.1473 48.5695H14.4557C13.9974 48.5829 13.5483 48.4388 13.1833 48.1614C12.8182 47.884 12.5592 47.4899 12.4494 47.0447ZM44.4302 47.0447C44.3253 47.4699 44.0842 47.849 43.7437 48.1243C43.4032 48.3996 42.9819 48.556 42.5442 48.5695H38.9529L41.2 36.5316H47.219L44.4302 47.0447Z"/></svg>